<svg width="500" height="384" viewBox="0 0 500 384" fill="none" xmlns="http://www.w3.org/2000/svg">
<g clip-path="url(#clip0)">
<path opacity="0.1" d="M43.4179 177.227C36.499 179.49 30.0415 184.966 28.2979 192.561C26.3191 201.287 30.8763 210.106 31.5267 219.054C33.6531 248.423 -4.97236 269.145 0.535015 298.006C2.72597 309.461 11.5728 317.906 20.2952 324.854C34.2573 335.986 49.7463 345.816 66.8819 348.595C92.9151 352.811 120.12 340.409 145.429 348.249C165.839 354.57 181.458 373.103 201.73 379.941C217.163 385.149 233.782 383.094 249.829 380.989C258.459 379.858 267.528 378.547 274.506 372.937C287.5 362.493 288.284 341.873 296.974 327.094C310.383 304.281 339.783 299.825 364.437 304.258C389.091 308.69 413.017 319.619 437.993 318.695C443.33 318.506 448.805 317.716 453.455 314.886C459.114 311.442 462.943 305.379 466.324 299.377C487.394 261.979 499.133 218.476 499.968 174.683C500.111 167.116 499.866 159.221 496.577 152.521C492.426 144.067 484.124 139.021 475.821 135.613C455.95 127.478 433.999 126.162 414.52 116.928C395.733 108.031 380.512 92.4205 364.156 79.0679C331.716 52.5426 293.584 34.1851 253.676 25.8512C244.28 23.8889 234.529 22.4853 225.194 24.7523C214.437 27.3656 205.166 34.6191 196.831 42.422C174.649 63.1989 156.877 88.8145 136.444 111.577C122.444 127.161 107.087 141.467 90.5535 154.327C82.9751 160.223 74.9492 167.222 66.5221 171.581C58.8145 175.565 51.5682 174.563 43.4179 177.227Z" fill="#D90429"/>
<path d="M467.966 192.187C457.818 190.063 438.607 186.078 416.863 181.664C384.672 175.131 376.273 199.86 376.273 199.86C376.273 212.456 334.299 264.703 334.299 264.703L321.78 236.631C323.704 236.928 325.67 236.795 327.537 236.243C334.705 234.101 338.247 226.007 339.396 218.615C341.11 207.482 339.544 196.09 334.889 185.833C332.754 181.152 329.986 176.747 328.27 171.899C321.033 151.556 333.57 128.009 325.987 107.744C322.855 99.3829 316.61 92.6004 312.292 84.7883C302.606 67.2202 303.021 45.2428 292.458 28.178C282.551 12.1798 263.026 2.69629 244.322 4.81092C233.293 6.05754 225.41 10.0005 215.134 5.27263C206.458 1.29269 196.042 -3.15819 187.108 3.11183C179.488 8.45843 178.192 18.99 174.031 27.3146C166.725 41.937 149.391 51.4805 147.352 67.7004C146.85 71.6988 147.352 75.845 146.185 79.7048C142.855 90.615 128.353 93.8378 122.412 103.575C116.596 113.105 122.472 127.515 133.293 130.262C137.906 131.435 142.869 130.724 147.477 131.966C151.799 133.12 155.992 137.165 155.244 141.389L145.66 143.135L118.081 146.2L113.815 146.468C113.815 146.468 113.815 146.542 113.815 146.676L113.584 146.704L113.81 146.888C113.81 147.216 113.81 147.729 113.81 148.403C106.047 151.445 93.4686 159.567 88.7177 180.87C87.6293 185.732 85.43 190.276 82.2924 194.144C75.2214 202.871 63.487 219.912 64.142 236.271C65.0645 259.596 65.0645 268.927 95.8671 262.394C103.648 260.746 112.112 257.366 120.42 253.238C120.904 262.962 122.163 272.496 124.792 279.653C133.192 302.512 115.461 383.219 115.461 383.219H286.693C286.693 383.219 272.228 335.635 258.233 311.377C248.321 294.192 251.983 283.799 254.963 279.196C257.547 275.284 259.477 270.977 260.678 266.443C261.185 264.453 261.679 262.196 262.103 259.693C265.254 262.274 268.616 264.592 272.422 265.977C275.946 267.256 279.954 267.607 283.519 266.619C290.816 275.548 298.967 285.341 307.689 295.517C341.282 334.702 350.613 310.444 350.613 310.444C350.613 310.444 384.672 245.602 389.359 226.007C394.045 206.412 404.29 207.344 404.29 207.344C432.371 214.45 457.26 204.136 468.824 197.93C469.386 197.632 469.842 197.166 470.128 196.597C470.415 196.028 470.518 195.385 470.424 194.755C470.33 194.125 470.043 193.539 469.603 193.079C469.162 192.62 468.591 192.308 467.966 192.187ZM121.508 203.909C123.851 201.236 125.864 198.291 127.505 195.137H127.592C126.742 198.398 125.646 201.59 124.313 204.685C121.697 205.188 120.12 205.451 120.12 205.451L121.508 203.909Z" fill="url(#paint0_linear)"/>
<path d="M185.886 7.26273C178.353 12.5539 177.071 22.9609 172.971 31.2162C165.747 45.6862 148.612 55.1374 146.596 71.1864C146.098 75.1433 146.596 79.2479 145.443 83.0616C142.154 93.861 127.814 97.0514 121.919 106.687C116.167 116.115 121.979 130.378 132.675 133.097C137.246 134.261 142.14 133.559 146.698 134.782C151.255 136.006 155.669 140.475 154.161 144.94C153.04 148.264 149.087 150.157 148.367 153.592C147.74 156.547 149.751 159.364 151.698 161.663C154.17 164.572 156.808 167.434 160.115 169.341C169.211 174.586 180.558 171.437 191.047 171.091C203.737 170.714 216.177 174.673 226.319 182.315C229.221 184.518 231.951 187.062 233.75 190.234C239.613 200.567 234.068 213.536 235.314 225.351C236.725 238.778 246.744 249.554 256.859 258.479C260.9 262.043 265.162 265.557 270.235 267.399C275.309 269.241 281.375 269.14 285.641 265.852C290.125 262.399 291.684 256.281 291.711 250.616C291.739 244.951 290.549 239.313 290.835 233.657C290.973 230.887 291.983 227.595 294.682 227.05C296.033 226.778 297.403 227.327 298.635 227.946C307.242 232.277 315.498 240.759 324.723 238.007C331.813 235.888 335.332 227.877 336.448 220.559C338.14 209.545 336.592 198.276 331.993 188.128C329.88 183.511 327.145 179.139 325.448 174.337C318.317 154.165 330.701 130.853 323.21 110.81C320.115 102.537 313.939 95.8233 309.673 88.0896C300.079 70.7016 300.507 48.9505 290.06 32.0612C280.268 16.2245 260.96 6.84258 242.472 8.93412C231.568 10.1669 223.778 14.073 213.616 9.39583C205.037 5.46668 194.742 1.03889 185.886 7.26273Z" fill="#40243E"/>
<path d="M258.995 153.518C258.995 153.518 288.976 144.284 300.969 197.843L331.412 266.176C331.412 266.176 372.924 214.464 372.924 201.998C372.924 201.998 381.227 177.527 413.054 183.991C434.553 188.359 453.524 192.302 463.575 194.403C464.186 194.53 464.743 194.842 465.171 195.297C465.599 195.752 465.877 196.328 465.967 196.946C466.057 197.565 465.955 198.196 465.675 198.754C465.395 199.313 464.95 199.771 464.4 200.068C452.971 206.209 428.363 216.417 400.6 209.385C400.6 209.385 390.452 208.462 385.84 227.854C381.227 247.246 347.555 311.423 347.555 311.423C347.555 311.423 338.33 335.432 305.12 296.648C271.91 257.865 247.002 224.622 247.002 224.622L258.995 153.518Z" fill="#FFBCC8"/>
<path d="M258.995 159.982L255.019 173.09L251.089 186.055L243.312 211.694L206.412 218.62L194.387 210.941L179.659 201.536L166.96 192.764L148.293 179.836L133.072 147.978C133.072 147.978 137.269 147.235 150.355 144.852L168.589 141.514C181.181 139.206 185.941 129.824 187.394 120.275C189.133 108.843 186.116 97.1899 186.116 97.1899H232.703C232.703 97.1899 237.915 105.039 237.099 118.595C236.842 122.606 236.142 126.577 235.009 130.433C230.913 144.626 240.162 149.363 246.435 150.901C248.131 151.331 249.866 151.59 251.614 151.672L258.995 159.982Z" fill="#FFBCC8"/>
<path opacity="0.1" d="M237.085 118.595C229.945 123.882 221.371 126.874 212.495 127.176C203.619 127.478 194.861 125.075 187.38 120.285C189.119 108.853 186.102 97.1992 186.102 97.1992H232.689C232.689 97.1992 237.915 105.016 237.085 118.595Z" fill="black"/>
<path d="M211.024 125.816C235.225 125.816 254.843 106.178 254.843 81.9535C254.843 57.7289 235.225 38.0911 211.024 38.0911C186.823 38.0911 167.205 57.7289 167.205 81.9535C167.205 106.178 186.823 125.816 211.024 125.816Z" fill="#FFBCC8"/>
<path opacity="0.1" d="M258.995 159.983L255.019 173.09L251.089 186.055L243.312 211.694L206.412 218.62L194.387 210.941L179.659 201.536L166.96 192.764L148.293 179.836L133.072 147.978C133.072 147.978 137.269 147.235 150.355 144.852C159.58 170.546 171.25 180.113 181.781 183.216C188.077 185.063 193.962 184.601 198.653 183.908C204.683 182.943 210.848 183.257 216.748 184.832C230.909 188.775 238.363 181.226 242.279 171.645C245.175 164.558 246.135 156.353 246.43 150.868C248.126 151.299 249.862 151.558 251.61 151.639L258.995 159.983Z" fill="black"/>
<path d="M115.083 383.45C115.083 383.45 132.611 303.574 124.308 280.95C121.933 274.486 120.687 266.028 120.129 257.274C118.745 235.449 121.541 211.694 121.541 211.694C121.937 210.923 122.311 210.156 122.671 209.385C123.593 207.415 124.405 205.488 125.106 203.605C134.991 176.983 122.694 159.257 116.458 152.48C115.457 151.367 114.378 150.329 113.229 149.372L148.515 145.448C157.791 172.093 169.686 181.923 180.387 185.072C186.684 186.919 192.569 186.457 197.26 185.764C203.29 184.798 209.455 185.113 215.355 186.688C229.516 190.631 236.97 183.082 240.886 173.501C245.747 161.608 245.148 146.588 245.148 146.588L265.443 152.59C265.443 152.59 263.653 163.718 262.034 178.34C261.651 181.77 261.278 185.39 260.941 189.107C259.557 204.611 258.736 221.755 260.369 233.39C262.028 244.887 261.437 256.598 258.63 267.87C257.445 272.357 255.538 276.62 252.984 280.493C250.037 285.046 246.416 295.337 256.213 312.351C270.051 336.36 284.35 383.454 284.35 383.454L115.083 383.45Z" fill="#FF808E"/>
<path d="M265.222 152.826C265.222 152.826 281.979 179.143 259.991 201.767C238.003 224.391 246.771 192.533 246.771 192.533L252.306 155.596L265.222 152.826Z" fill="#FF808E"/>
<path opacity="0.1" d="M116.458 152.48C117.708 152.084 118.991 151.796 120.291 151.621C126.287 154.483 129.608 162.429 131.411 170.726C132.615 176.354 132.677 182.166 131.594 187.818C130.511 193.469 128.305 198.846 125.106 203.628C134.991 176.983 122.694 159.258 116.458 152.48Z" fill="black"/>
<path opacity="0.1" d="M260.95 189.112C251.102 189.763 238.238 188.608 238.238 188.608C239.972 196.55 236.393 202.755 232.703 206.8C231.292 208.364 229.511 209.549 227.524 210.245C225.536 210.941 223.406 211.127 221.328 210.784C200.046 207.091 167.685 226.482 167.685 226.482C167.685 226.482 144.539 245.196 120.129 257.288C118.745 235.463 121.541 211.708 121.541 211.708C121.937 210.937 122.311 210.17 122.671 209.399C132.532 207.552 168.363 200.257 175.507 189.546C176.568 187.953 178.275 186.461 180.397 185.076C186.499 181.124 196.264 178.026 205.549 175.764C217.105 172.926 229.073 172.166 240.895 173.52C245.97 174.102 250.992 175.082 255.913 176.452C258.063 177.047 260.138 177.689 262.043 178.358C267.265 180.205 271.222 182.269 271.91 184.467C272.837 187.422 267.574 188.678 260.95 189.112Z" fill="black"/>
<path opacity="0.1" d="M251.089 186.055C243.99 185.935 237.777 185.376 237.777 185.376C239.511 193.318 235.932 199.523 232.242 203.568C230.831 205.132 229.05 206.317 227.062 207.013C225.075 207.709 222.945 207.895 220.867 207.552C212.846 206.167 203.247 208.056 194.405 210.941L179.659 201.536L166.96 192.764C170.65 190.783 173.506 188.608 175.046 186.3C179.142 180.15 192.574 175.574 205.088 172.518C221.51 168.464 238.693 168.662 255.019 173.09L255.452 173.206C263.473 175.445 270.512 178.22 271.448 181.221C272.795 185.538 261.07 186.231 251.089 186.055Z" fill="black"/>
<path d="M119.829 149.303C119.829 149.303 95.7011 151.759 88.667 183.068C87.5795 187.935 85.3855 192.485 82.2555 196.365C75.2629 205.013 63.6993 221.851 64.345 238.016C65.2675 261.101 65.2675 270.336 95.7103 263.872C126.153 257.408 167.205 224.165 167.205 224.165C167.205 224.165 199.566 204.805 220.849 208.466C222.926 208.808 225.056 208.622 227.043 207.926C229.031 207.23 230.812 206.046 232.223 204.482C235.913 200.437 239.516 194.232 237.758 186.291C237.758 186.291 273.736 189.522 271.43 182.135C270.507 179.134 263.455 176.359 255.434 174.124C238.981 169.584 221.64 169.346 205.069 173.432C192.532 176.493 179.124 181.069 175.028 187.214C166.725 199.68 119.677 207.529 119.677 207.529L121.061 205.973C125.529 200.922 128.751 194.892 130.469 188.368C132.186 181.844 132.351 175.008 130.95 168.409C129.151 160.112 125.844 152.166 119.829 149.303Z" fill="#FFBCC8"/>
<path d="M113.469 149.132C113.469 149.132 112.085 204.999 132.841 196.688C153.598 188.378 137.454 149.132 137.454 149.132L128.229 148.209L113.469 149.132Z" fill="#FF808E"/>
<path opacity="0.1" d="M175.586 82.706C189.271 81.1853 202.767 78.2817 215.867 74.0397C219.234 72.95 222.892 71.5003 224.465 68.3329C224.871 67.5157 225.175 66.5461 225.973 66.0983C226.651 65.715 227.491 65.8351 228.252 66.0105C232.749 67.0771 236.61 69.8981 240.895 71.6295C245.18 73.361 250.636 73.7673 253.93 70.5168C257.818 66.6754 256.531 60.073 253.971 55.2481C244.465 37.2968 222.195 29.1015 201.937 30.5882C199.091 30.7959 196.199 31.1792 193.635 32.435C188.21 35.0437 185.24 40.8474 182.302 46.1062C176.587 56.3054 146.37 85.9426 175.586 82.706Z" fill="black"/>
<path d="M175.586 81.321C189.271 79.8003 202.767 76.8967 215.867 72.6547C219.234 71.565 222.892 70.1153 224.465 66.9479C224.871 66.1307 225.175 65.1611 225.973 64.7133C226.651 64.33 227.491 64.4501 228.252 64.6255C232.749 65.6921 236.61 68.5131 240.895 70.2445C245.18 71.976 250.636 72.3823 253.93 69.1318C257.818 65.2904 256.531 58.688 253.971 53.8631C244.465 35.9118 222.195 27.7165 201.937 29.2032C199.091 29.4109 196.199 29.7942 193.635 31.05C188.21 33.6587 185.24 39.4624 182.302 44.7212C176.587 54.9204 146.37 84.5575 175.586 81.321Z" fill="#40243E"/>
<path d="M472.897 130.202H379.262C378.13 130.202 377.045 130.652 376.245 131.453C375.445 132.254 374.995 133.34 374.995 134.473V189.416C374.995 190.549 375.445 191.635 376.245 192.436C377.045 193.237 378.13 193.687 379.262 193.687H472.897C474.028 193.687 475.113 193.237 475.914 192.436C476.714 191.635 477.163 190.549 477.163 189.416V134.473C477.163 133.34 476.714 132.254 475.914 131.453C475.113 130.652 474.028 130.202 472.897 130.202Z" fill="url(#paint1_linear)"/>
<path d="M470.47 130.95H381.674C378.64 130.95 376.181 133.412 376.181 136.449V187.445C376.181 190.482 378.64 192.944 381.674 192.944H470.47C473.504 192.944 475.964 190.482 475.964 187.445V136.449C475.964 133.412 473.504 130.95 470.47 130.95Z" fill="#D90429"/>
<path d="M475.964 141.8H376.181V153.168H475.964V141.8Z" fill="#D90429"/>
<path opacity="0.3" d="M475.964 141.8H376.181V153.168H475.964V141.8Z" fill="black"/>
<path d="M466.499 161.603H385.641V167.116H466.499V161.603Z" fill="#D6D6E3"/>
<path d="M392.352 188.811C396.724 188.811 400.268 185.264 400.268 180.889C400.268 176.513 396.724 172.966 392.352 172.966C387.981 172.966 384.437 176.513 384.437 180.889C384.437 185.264 387.981 188.811 392.352 188.811Z" fill="#D90429"/>
<path opacity="0.3" d="M392.352 188.811C396.724 188.811 400.268 185.264 400.268 180.889C400.268 176.513 396.724 172.966 392.352 172.966C387.981 172.966 384.437 176.513 384.437 180.889C384.437 185.264 387.981 188.811 392.352 188.811Z" fill="black"/>
<path opacity="0.05" d="M116.697 207.769C116.697 207.769 107.934 212.428 106.481 218.121C105.028 223.814 103.321 224.853 103.321 224.853" fill="black"/>
<path opacity="0.05" d="M331.642 265.945C331.642 265.945 327.491 280.258 331.642 282.105V265.945Z" fill="black"/>
<path opacity="0.05" d="M124.539 282.105C124.539 282.105 160.517 289.954 187.269 273.794H198.801C198.801 273.794 233.395 291.339 250 286.26" fill="black"/>
<path d="M379.935 254.342L372.959 270.342L404.106 283.95L411.083 267.95L379.935 254.342Z" fill="#8ED16F"/>
<path d="M398.483 272.216C399.274 270.403 396.979 267.65 393.358 266.068C389.737 264.486 386.16 264.673 385.37 266.487C384.579 268.3 386.873 271.053 390.494 272.635C394.116 274.217 397.692 274.03 398.483 272.216Z" fill="#8ED16F"/>
<path opacity="0.1" d="M398.483 272.216C399.274 270.403 396.979 267.65 393.358 266.068C389.737 264.486 386.16 264.673 385.37 266.487C384.579 268.3 386.873 271.053 390.494 272.635C394.116 274.217 397.692 274.03 398.483 272.216Z" fill="black"/>
<path d="M425.613 197.339L418.636 213.339L449.784 226.948L456.761 210.948L425.613 197.339Z" fill="#8ED16F"/>
<path d="M444.161 215.213C444.952 213.4 442.657 210.647 439.036 209.065C435.415 207.483 431.838 207.671 431.048 209.484C430.257 211.298 432.551 214.05 436.172 215.632C439.794 217.215 443.37 217.027 444.161 215.213Z" fill="#8ED16F"/>
<path opacity="0.1" d="M444.161 215.213C444.952 213.4 442.657 210.647 439.036 209.065C435.415 207.483 431.838 207.671 431.048 209.484C430.257 211.298 432.551 214.05 436.172 215.632C439.794 217.215 443.37 217.027 444.161 215.213Z" fill="black"/>
<path d="M480.939 255.246L463.825 258.604L470.362 291.987L487.476 288.63L480.939 255.246Z" fill="#8ED16F"/>
<path d="M476.81 280.686C478.75 280.305 479.707 276.85 478.947 272.969C478.187 269.088 475.998 266.25 474.058 266.631C472.118 267.011 471.162 270.466 471.922 274.347C472.682 278.228 474.87 281.066 476.81 280.686Z" fill="#8ED16F"/>
<path opacity="0.1" d="M476.81 280.686C478.75 280.305 479.707 276.85 478.947 272.969C478.187 269.088 475.998 266.25 474.058 266.631C472.118 267.011 471.162 270.466 471.922 274.347C472.682 278.228 474.87 281.066 476.81 280.686Z" fill="black"/>
<path d="M419.368 332.661L412.392 348.66L443.539 362.269L450.516 346.269L419.368 332.661Z" fill="#8ED16F"/>
<path d="M437.925 350.537C438.715 348.723 436.421 345.97 432.8 344.388C429.179 342.806 425.602 342.994 424.811 344.807C424.02 346.621 426.315 349.374 429.936 350.956C433.557 352.538 437.134 352.35 437.925 350.537Z" fill="#8ED16F"/>
<path opacity="0.1" d="M437.925 350.537C438.715 348.723 436.421 345.97 432.8 344.388C429.179 342.806 425.602 342.994 424.811 344.807C424.02 346.621 426.315 349.374 429.936 350.956C433.557 352.538 437.134 352.35 437.925 350.537Z" fill="black"/>
<path d="M342.407 317.541L335.431 333.54L366.578 347.149L373.555 331.149L342.407 317.541Z" fill="#8ED16F"/>
<path d="M360.959 335.416C361.75 333.603 359.455 330.85 355.834 329.268C352.213 327.686 348.636 327.873 347.846 329.687C347.055 331.501 349.349 334.253 352.971 335.835C356.592 337.417 360.168 337.23 360.959 335.416Z" fill="#8ED16F"/>
<path opacity="0.1" d="M360.959 335.416C361.75 333.603 359.455 330.85 355.834 329.268C352.213 327.686 348.636 327.873 347.846 329.687C347.055 331.501 349.349 334.253 352.971 335.835C356.592 337.417 360.168 337.23 360.959 335.416Z" fill="black"/>
</g>
<defs>
<linearGradient id="paint0_linear" x1="267.265" y1="383.219" x2="267.265" y2="-0.000103944" gradientUnits="userSpaceOnUse">
<stop stop-color="#808080" stop-opacity="0.25"/>
<stop offset="0.54" stop-color="#808080" stop-opacity="0.12"/>
<stop offset="1" stop-color="#808080" stop-opacity="0.1"/>
</linearGradient>
<linearGradient id="paint1_linear" x1="100675" y1="28968.9" x2="100675" y2="20239.1" gradientUnits="userSpaceOnUse">
<stop stop-color="#808080" stop-opacity="0.25"/>
<stop offset="0.54" stop-color="#808080" stop-opacity="0.12"/>
<stop offset="1" stop-color="#808080" stop-opacity="0.1"/>
</linearGradient>
<clipPath id="clip0">
<rect width="500" height="383.45" fill="white"/>
</clipPath>
</defs>
</svg>
