<svg width="500" height="328" viewBox="0 0 500 328" fill="none" xmlns="http://www.w3.org/2000/svg">
<g clip-path="url(#clip0)">
<path opacity="0.1" d="M9.68169 104.505C5.91699 115.91 16.9856 126.167 25.6915 134.428C37.608 145.76 47.0106 159.473 53.2895 174.676C57.0739 183.864 59.7062 193.749 59.0003 203.662C57.0003 231.78 30.5395 250.514 9.39738 269.139C6.40228 271.803 3.40718 274.589 1.66209 278.18C-3.94085 289.703 5.58366 302.982 16.0739 310.33C53.4317 336.485 107.353 328.705 143.589 301.015C162.353 286.671 178.481 267.167 201.221 260.79C215.76 256.734 231.192 258.657 246.236 259.907C268.793 261.778 291.454 262.047 314.049 260.712C321.981 260.221 330.275 259.456 336.917 255.095C353.736 244.068 350.897 217.922 363.035 201.882C371.76 190.354 386.667 185.91 399.643 179.538C419.615 169.676 436.28 154.2 447.598 135.007C458.015 117.264 463.412 97.0928 468.677 77.2064C472.647 62.2646 476.633 46.6165 473.27 31.5226C469.907 16.4287 456.633 2.33555 441.241 3.66001C429.422 4.67542 420.02 14.0202 408.638 17.3656C381.373 25.4007 354.902 -2.50606 326.618 0.186993C308.809 1.87935 294.446 15.3937 283.589 29.6193C272.731 43.8449 263.54 59.861 249.201 70.5743C226.897 87.2527 196.339 87.8413 169.035 82.4405C141.731 77.0396 115.535 66.4097 87.9268 62.868C71.6621 60.7832 59.1964 70.4811 44.5493 75.8133C31.1082 80.7089 14.6621 89.4208 9.68169 104.505Z" fill="#D90429"/>
<path opacity="0.1" d="M67.6226 327.768C87.3153 327.768 103.279 322.914 103.279 316.927C103.279 310.94 87.3153 306.086 67.6226 306.086C47.9298 306.086 31.9657 310.94 31.9657 316.927C31.9657 322.914 47.9298 327.768 67.6226 327.768Z" fill="#D90429"/>
<path opacity="0.1" d="M404.77 184.595C457.364 184.595 500 181.764 500 178.271C500 174.779 457.364 171.948 404.77 171.948C352.175 171.948 309.539 174.779 309.539 178.271C309.539 181.764 352.175 184.595 404.77 184.595Z" fill="#D90429"/>
<g opacity="0.5">
<path opacity="0.5" d="M347.196 33.5528C348.517 33.5528 349.784 34.0779 350.718 35.0126C351.652 35.9472 352.177 37.2149 352.177 38.5367V177.114H342.216V38.5318C342.217 37.2108 342.743 35.9444 343.676 35.0108C344.61 34.0772 345.876 33.5528 347.196 33.5528Z" fill="#D90429"/>
<path opacity="0.5" d="M456.476 33.5528C457.796 33.5528 459.063 34.0779 459.997 35.0126C460.931 35.9472 461.456 37.2149 461.456 38.5367V177.114H451.471V38.5318C451.471 37.8756 451.601 37.2261 451.853 36.6204C452.106 36.0147 452.475 35.4647 452.94 35.0021C453.405 34.5395 453.956 34.1734 454.563 33.9247C455.17 33.676 455.82 33.5496 456.476 33.5528Z" fill="#D90429"/>
<path opacity="0.5" d="M485.544 64.5303C488.295 64.5303 490.525 62.299 490.525 59.5464C490.525 56.7939 488.295 54.5626 485.544 54.5626L318.132 54.5626C315.382 54.5626 313.152 56.7939 313.152 59.5464C313.152 62.299 315.382 64.5303 318.132 64.5303L485.544 64.5303Z" fill="#D90429"/>
<path opacity="0.5" d="M339.255 44.7273C339.255 42.5708 337.508 40.8226 335.353 40.8226C333.198 40.8226 331.451 42.5708 331.451 44.7273V74.3558C331.451 76.5123 333.198 78.2605 335.353 78.2605C337.508 78.2605 339.255 76.5123 339.255 74.3558V44.7273Z" fill="#D90429"/>
<path opacity="0.5" d="M331.451 48.2297C331.451 46.0732 329.704 44.325 327.549 44.325C325.394 44.325 323.647 46.0732 323.647 48.2297V70.8583C323.647 73.0148 325.394 74.763 327.549 74.763C329.704 74.763 331.451 73.0148 331.451 70.8583V48.2297Z" fill="#D90429"/>
<path opacity="0.5" d="M464.417 74.3558C464.417 76.5123 466.164 78.2605 468.319 78.2605C470.474 78.2605 472.221 76.5123 472.221 74.3558V44.7273C472.221 42.5708 470.474 40.8226 468.319 40.8226C466.164 40.8226 464.417 42.5708 464.417 44.7273V74.3558Z" fill="#D90429"/>
<path opacity="0.5" d="M472.22 70.8534C472.22 73.0099 473.967 74.7581 476.122 74.7581C478.277 74.7581 480.024 73.0099 480.024 70.8534V48.2248C480.024 46.0683 478.277 44.3201 476.122 44.3201C473.967 44.3201 472.22 46.0683 472.22 48.2248V70.8534Z" fill="#D90429"/>
</g>
<g opacity="0.5">
<path opacity="0.5" d="M391.893 91.5541H412.256C414.466 91.5541 416.585 92.4327 418.148 93.9966C419.711 95.5605 420.589 97.6816 420.589 99.8933V134.898H383.579V99.8933C383.579 97.685 384.454 95.5668 386.013 94.0035C387.571 92.4402 389.686 91.5593 391.893 91.5541Z" fill="#D90429"/>
<path opacity="0.5" d="M404.769 131.754H399.353V149.82H404.769V131.754Z" fill="#D90429"/>
<path opacity="0.5" d="M393.936 152.077H388.52V170.143H393.936V152.077Z" fill="#D90429"/>
<path opacity="0.5" d="M416.505 152.077H411.088V170.143H416.505V152.077Z" fill="#D90429"/>
<path opacity="0.5" d="M420.569 148.462H383.559V153.431H420.569V148.462Z" fill="#D90429"/>
</g>
<path opacity="0.1" d="M231.907 298.409C344.075 298.409 435.005 291.737 435.005 283.507C435.005 275.276 344.075 268.604 231.907 268.604C119.739 268.604 28.809 275.276 28.809 283.507C28.809 291.737 119.739 298.409 231.907 298.409Z" fill="#D90429"/>
<path d="M284.49 230.435C284.49 230.435 298.48 236.758 305.25 236.758C305.25 236.758 312.471 238.564 316.524 240.374C320.578 242.184 336.382 243.081 336.382 243.081C336.382 243.081 354.887 249.856 357.142 253.02C359.397 256.184 366.167 241.737 366.167 241.737L362.554 232.707L294.417 219.609L284.49 230.435Z" fill="#FFB9B9"/>
<path opacity="0.05" d="M284.49 230.435C284.49 230.435 298.48 236.758 305.25 236.758C305.25 236.758 312.471 238.564 316.524 240.374C320.578 242.184 336.382 243.081 336.382 243.081C336.382 243.081 354.887 249.856 357.142 253.02C359.397 256.184 366.167 241.737 366.167 241.737L362.554 232.707L294.417 219.609L284.49 230.435Z" fill="black"/>
<path d="M353.544 250.312C353.544 250.312 362.118 261.594 358.51 268.378C354.902 275.163 356.255 275.153 358.51 275.604C360.765 276.055 373.402 278.768 374.76 268.83C376.118 258.891 378.823 236.763 378.823 236.763L360.294 234.953C360.294 234.953 365.279 251.666 353.544 250.312Z" fill="#737A9D"/>
<path d="M247.03 215.533L285.843 233.599C285.843 233.599 298.03 224.112 297.118 219.148L251.985 208.307L247.03 215.533Z" fill="#4C4C78"/>
<path opacity="0.1" d="M247.03 215.533L285.843 233.599C285.843 233.599 298.03 224.112 297.118 219.148L251.985 208.307L247.03 215.533Z" fill="black"/>
<path d="M409.961 239.02L405.882 248.953L396.421 251.2C393.771 248.986 390.935 247.004 387.946 245.274C382.853 242.331 376.152 239.451 369.809 239.908C369.809 239.908 344.534 235.841 343.181 234.021C343.181 234.021 326.931 230.406 323.323 230.857C321.583 231.073 317.843 229.822 314.441 228.463C310.789 226.992 307.524 225.437 307.524 225.437L319.26 206.919C320.628 207.509 322.037 208 323.475 208.391C327.961 209.705 336.034 211.412 347.696 211.412C366.652 211.412 392.828 230.833 392.828 230.833C392.828 230.833 393.088 230.921 393.534 231.053C395.495 231.647 401.083 233.045 403.662 230.833C406.799 228.179 409.961 239.02 409.961 239.02Z" fill="#FFB9B9"/>
<path opacity="0.1" d="M409.961 239.02L405.882 248.953L396.421 251.2C393.771 248.986 390.935 247.003 387.946 245.274C401.711 246.309 393.49 231.103 393.49 231.103H393.519C395.48 231.696 401.068 233.094 403.647 230.882C406.799 228.179 409.961 239.02 409.961 239.02Z" fill="black"/>
<path d="M388 245.657C388 245.657 398.917 260.976 394.324 269.605C389.73 278.233 391.451 278.229 394.324 278.807C397.196 279.386 413.289 282.835 415.01 270.184C416.333 260.456 415.172 241.786 414.564 233.683C414.525 233.171 414.385 232.672 414.152 232.216C413.919 231.759 413.597 231.353 413.206 231.021C412.814 230.69 412.361 230.44 411.872 230.285C411.383 230.131 410.869 230.075 410.358 230.121L394.392 231.593C394.392 231.593 402.941 247.383 388 245.657Z" fill="#737A9D"/>
<path d="M128.779 260.697L129.23 282.83L134.196 286.44H151.348L154.505 281.927V260.697L149.539 256.179H133.294L128.779 260.697Z" fill="#D90429"/>
<path opacity="0.2" d="M131.485 261.148C131.485 261.148 134.647 281.471 131.485 283.281L129.23 282.83L128.779 261.153L131.485 261.148Z" fill="white"/>
<path d="M168.495 259.343L172.108 255.728H189.265L192.878 259.343C192.878 259.343 197.392 272.44 193.78 281.02L189.706 285.086H172.549L168.485 281.471L168.495 259.343Z" fill="#D90429"/>
<path opacity="0.1" d="M128.779 260.697L129.23 282.83L134.196 286.44H151.348L154.505 281.927V260.697L149.539 256.179H133.294L128.779 260.697Z" fill="black"/>
<path opacity="0.1" d="M168.495 259.343L172.108 255.728H189.265L192.878 259.343C192.878 259.343 197.392 272.44 193.78 281.02L189.706 285.086H172.549L168.485 281.471L168.495 259.343Z" fill="black"/>
<path opacity="0.2" d="M172.549 260.245C172.549 260.245 176.162 276.055 172.549 281.471H168.485V259.343L172.549 260.245Z" fill="white"/>
<path d="M154.505 184.369C154.505 184.369 156.309 201.984 156.309 204.241C156.309 206.497 155.407 221.409 158.113 235.856C160.818 250.302 156.309 268.369 156.309 268.369H171.201L177.519 219.59L173.005 193.846L171.201 185.718L154.505 184.369Z" fill="#FFB9B9"/>
<path opacity="0.05" d="M154.505 184.369C154.505 184.369 156.309 201.984 156.309 204.241C156.309 206.497 155.407 221.409 158.113 235.856C160.818 250.302 156.309 268.369 156.309 268.369H171.201L177.519 219.59L173.005 193.846L171.201 185.718L154.505 184.369Z" fill="black"/>
<path d="M151.799 139.656C151.799 139.656 131.941 140.108 147.735 173.077C147.735 173.077 151.799 186.625 151.799 188.887C151.799 191.148 172.108 191.143 174.348 188.887C176.588 186.63 170.735 168.112 170.735 159.528C170.735 150.944 164.887 136.949 151.799 139.656Z" fill="#CBCDDA"/>
<path opacity="0.05" d="M151.799 139.656C151.799 139.656 131.941 140.108 147.735 173.077C147.735 173.077 151.799 186.625 151.799 188.887C151.799 191.148 172.108 191.143 174.348 188.887C176.588 186.63 170.735 168.112 170.735 159.528C170.735 150.944 164.887 136.949 151.799 139.656Z" fill="black"/>
<path d="M127.877 120.226C127.877 120.226 145.034 138.744 159.47 125.195L157.667 173.072C157.667 173.072 134.196 144.621 117.961 146.877L127.877 120.226Z" fill="#FFB9B9"/>
<path opacity="0.1" d="M323.456 208.445C322.77 213.737 320.613 224.882 314.422 228.493C310.77 227.021 307.505 225.466 307.505 225.466L319.24 206.948C320.608 207.546 322.017 208.046 323.456 208.445Z" fill="black"/>
<path d="M322.402 205.58C322.402 205.58 321.049 227.713 310.216 229.518L244.784 217.706C241.609 217.128 238.623 215.781 236.088 213.782C233.446 211.702 230.206 208.876 228.289 206.286C227.25 204.873 226.623 203.524 226.726 202.411C227.177 197.442 247.034 185.698 240.265 164.924C241.227 164.161 242.298 163.546 243.441 163.099C249.093 160.749 262.103 159.023 280.882 178.473C280.882 178.497 315.632 206.502 322.402 205.58Z" fill="#4C4C78"/>
<path d="M145.48 262.502L145.931 284.635L150.892 288.25H168.044L171.206 283.732V262.502L166.24 257.989H149.99L145.48 262.502Z" fill="#D90429"/>
<path opacity="0.2" d="M148.186 262.973C148.186 262.973 151.348 283.296 148.186 285.106L145.931 284.655L145.48 262.973H148.186Z" fill="white"/>
<path d="M195.127 260.697L198.74 257.081H215.897L219.51 260.697C219.51 260.697 224.024 273.794 220.412 282.374L216.348 286.44H199.191L195.127 282.825V260.697Z" fill="#D90429"/>
<path opacity="0.2" d="M199.186 261.599C199.186 261.599 202.799 277.409 199.186 282.825H195.123V260.697L199.186 261.599Z" fill="white"/>
<path d="M171.078 269.281H195.495C197.407 269.281 198.956 270.998 198.956 273.122C198.956 275.241 197.407 276.963 195.495 276.963H171.078C169.005 276.963 167.397 274.957 167.647 272.676C167.848 270.738 169.328 269.281 171.078 269.281Z" fill="#D90429"/>
<path opacity="0.1" d="M241.613 198.82C236.784 202.205 231.696 204.422 228.284 206.311C227.245 204.898 226.618 203.549 226.72 202.435C227.171 197.466 247.029 185.723 240.26 164.948C241.222 164.186 242.293 163.571 243.436 163.124C244.497 163.101 245.551 162.956 246.578 162.692C246.578 162.692 250.637 192.497 241.613 198.82Z" fill="black"/>
<path d="M140.289 155.236C140.289 155.236 147.059 162.01 153.603 166.302C159.642 170.261 148.863 130.395 148.863 130.395C148.863 130.395 155.549 124.999 159.475 121.796C162.098 119.637 165.439 118.551 168.828 118.754C177.863 119.338 194.412 123.14 207.765 141.466C227.171 168.112 244.774 162.692 244.774 162.692C244.774 162.692 248.838 192.502 239.809 198.825C230.779 205.148 220.853 207.405 222.652 211.02C224.451 214.635 214.529 193.405 191.961 189.794C169.392 186.184 144.568 170.374 145.024 162.697C145.029 162.692 138.485 157.507 140.289 155.236Z" fill="#CBCDDA"/>
<path opacity="0.1" d="M135.549 131.999C135.547 130.693 135.432 129.39 135.206 128.104C129.294 125.161 130.132 121.158 130.132 121.158L120.201 147.804C123.833 147.314 127.829 148.334 131.838 150.257C137.118 146.082 135.549 139.205 135.549 131.999Z" fill="black"/>
<path d="M115.691 154.112C128.155 154.112 138.26 144.001 138.26 131.528C138.26 119.055 128.155 108.944 115.691 108.944C103.227 108.944 93.1226 119.055 93.1226 131.528C93.1226 144.001 103.227 154.112 115.691 154.112Z" fill="#FFB9B9"/>
<path opacity="0.1" d="M95.1865 136.62C94.7698 137.959 94.1277 139.337 92.9169 140.054C91.4463 140.927 89.4169 140.495 88.1081 139.367C86.7992 138.239 86.0934 136.551 85.7257 134.864C85.1962 132.42 85.2804 129.884 85.9708 127.481C86.5591 125.445 87.5738 123.557 88.0002 121.472C88.4561 119.255 88.2257 116.935 88.7355 114.727C89.4267 111.735 91.3973 109.228 93.3189 106.829C93.921 105.914 94.7016 105.129 95.6137 104.522C96.5259 103.915 97.551 103.499 98.6277 103.298L108.074 100.448C109.865 99.8473 111.705 99.4074 113.574 99.1329C115.976 98.8868 118.403 99.0999 120.726 99.7608C122.575 100.226 124.33 101.01 125.912 102.076C127.479 103.241 128.86 104.639 130.005 106.221C135 112.755 137.848 123.444 143 129.875C140.966 130.503 138.932 128.403 136.897 129.041C136.608 129.166 136.286 129.192 135.981 129.115C135.678 128.95 135.441 128.687 135.309 128.369C133.516 125.235 130.695 122.819 127.324 121.531C124.824 120.584 121.441 120.589 120.074 122.885C119.147 124.435 119.52 126.392 119.765 128.183C120.01 129.973 119.966 132.107 118.549 133.211C117.766 133.74 116.855 134.048 115.912 134.103C111.515 134.68 107.045 134.242 102.843 132.823C101.373 132.333 99.8777 130.797 98.3238 131.288C96.2257 131.95 95.7404 134.839 95.1865 136.62Z" fill="black"/>
<path d="M94.691 136.124C94.2744 137.464 93.6322 138.842 92.4214 139.558C90.9508 140.431 88.9214 140 87.6126 138.871C86.3038 137.743 85.5979 136.056 85.2302 134.368C84.7007 131.925 84.7849 129.388 85.4753 126.986C86.0636 124.95 87.0783 123.061 87.5048 120.977C87.9606 118.759 87.7303 116.439 88.2401 114.232C88.9312 111.239 90.9018 108.733 92.8234 106.334C93.4256 105.418 94.2061 104.634 95.1183 104.027C96.0304 103.42 97.0555 103.003 98.1322 102.802L107.578 99.9521C109.369 99.3536 111.21 98.9153 113.078 98.6424C115.481 98.3963 117.908 98.6093 120.23 99.2702C122.08 99.7358 123.835 100.519 125.417 101.586C126.984 102.751 128.364 104.149 129.51 105.731C134.505 112.265 137.353 122.953 142.505 129.384C140.47 130.012 138.436 127.913 136.402 128.551C136.113 128.675 135.791 128.701 135.485 128.624C135.179 128.461 134.938 128.198 134.804 127.878C133.011 124.745 130.19 122.328 126.819 121.04C124.319 120.094 120.936 120.099 119.569 122.394C118.642 123.944 119.015 125.902 119.26 127.692C119.505 129.483 119.461 131.616 118.044 132.72C117.261 133.25 116.35 133.558 115.407 133.613C111.01 134.19 106.54 133.752 102.338 132.333C100.868 131.842 99.3724 130.307 97.8185 130.797C95.7302 131.454 95.245 134.344 94.691 136.124Z" fill="#B96B6B"/>
<g opacity="0.1">
<path opacity="0.1" d="M150.392 129.164L148.863 130.4C148.863 130.4 155.181 153.764 155.431 162.942C158.657 162.069 152.451 137.071 150.392 129.164Z" fill="black"/>
<path opacity="0.1" d="M240.686 195.21C231.662 201.533 221.73 203.789 223.529 207.405C225.328 211.02 215.407 189.789 192.838 186.179C171.666 182.789 148.51 168.667 146.098 160.593C142.716 157.698 140.255 155.241 140.255 155.241C138.451 157.497 144.995 162.692 144.995 162.692C144.544 170.369 169.367 186.179 191.931 189.789C214.495 193.4 224.426 214.63 222.622 211.015C220.818 207.4 230.745 205.128 239.779 198.82C242.363 197.01 243.872 193.277 244.715 188.867C243.843 191.658 242.549 193.92 240.686 195.21Z" fill="black"/>
</g>
<path d="M195.127 238.569C193.774 240.374 192.872 258.892 192.872 258.892C192.872 258.892 198.265 285.538 181.598 282.83C164.931 280.122 179.343 261.153 179.343 261.153L177.088 234.958C168.515 212.393 170.319 196.117 170.319 196.117L168.716 181.367L168.059 175.343L187.466 170.825C186.936 171.532 187.162 175.937 187.637 181.053C188.377 189.068 189.72 198.825 189.72 198.825C193.769 203.338 196.48 236.758 195.127 238.569Z" fill="#FFB9B9"/>
<path opacity="0.1" d="M167.593 130.174C167.593 130.174 147.735 130.626 163.529 163.595C163.529 163.595 167.593 177.143 167.593 179.405C167.593 181.666 187.902 181.661 190.142 179.405C192.382 177.148 186.529 158.63 186.529 150.046C186.529 141.462 180.681 127.462 167.593 130.174Z" fill="black"/>
<path opacity="0.1" d="M187.622 181.053C183.407 182.206 173.074 182.309 168.696 181.367L168.039 175.343L187.446 170.825C186.926 171.527 187.152 175.932 187.622 181.053Z" fill="black"/>
<path d="M166.691 130.174C166.691 130.174 146.834 130.626 162.628 163.595C162.628 163.595 166.691 177.143 166.691 179.405C166.691 181.666 187 181.661 189.241 179.405C191.481 177.148 185.628 158.63 185.628 150.046C185.628 141.462 179.78 127.462 166.691 130.174Z" fill="#CBCDDA"/>
<g opacity="0.5">
<path opacity="0.5" d="M36.7844 200.875L22.4119 201.17L20.0687 204.398V215.552L23.0001 217.608H36.7844L39.7207 214.38V203.814L36.7844 200.875Z" fill="#D90429"/>
<path opacity="0.2" d="M36.495 202.637C36.495 202.637 23.294 204.692 22.1224 202.637L22.4165 201.165L36.495 200.871V202.637Z" fill="white"/>
<path opacity="0.5" d="M37.9608 233.163L40.3089 235.512V246.667L37.9608 249.017C37.9608 249.017 29.4559 251.96 23.8824 249.606L21.2402 246.962V235.807L23.5883 233.163H37.9608Z" fill="#D90429"/>
<path opacity="0.2" d="M37.3727 235.807C37.3727 235.807 27.108 238.156 23.5884 235.807V233.163H37.9609L37.3727 235.807Z" fill="white"/>
<path opacity="0.5" d="M32.3875 217.529V233.408C32.3533 234.037 32.0717 234.627 31.6041 235.049C31.1366 235.471 30.5212 235.69 29.8924 235.66C29.2636 235.69 28.6483 235.471 28.1807 235.049C27.7132 234.627 27.4316 234.037 27.3973 233.408V217.529C27.3973 216.18 28.7013 215.135 30.1817 215.292C30.7605 215.327 31.306 215.574 31.7133 215.987C32.1206 216.4 32.3607 216.95 32.3875 217.529Z" fill="#D90429"/>
<path opacity="0.5" d="M59.804 201.327L45.4314 201.621L43.0834 204.849V216.004L46.0196 218.059H59.804L62.7353 214.831V204.265L59.804 201.327Z" fill="#D90429"/>
<path opacity="0.2" d="M59.51 203.093C59.51 203.093 46.309 205.148 45.1375 203.093L45.4316 201.621L59.51 201.327V203.093Z" fill="white"/>
<path opacity="0.5" d="M60.9755 233.619L63.3235 235.969V247.123L60.9755 249.473C60.9755 249.473 52.4706 252.416 46.897 250.062L44.2549 247.418V236.258L46.6029 233.614L60.9755 233.619Z" fill="#D90429"/>
<path opacity="0.2" d="M60.3923 236.258C60.3923 236.258 50.1276 238.608 46.608 236.258V233.614H60.9806L60.3923 236.258Z" fill="white"/>
<path opacity="0.5" d="M55.3925 217.981V233.859C55.3583 234.488 55.0767 235.078 54.6091 235.5C54.1416 235.922 53.5262 236.142 52.8974 236.111C52.2686 236.142 51.6533 235.922 51.1857 235.5C50.7182 235.078 50.4366 234.488 50.4023 233.859V217.981C50.4023 216.632 51.7063 215.587 53.1867 215.744C53.7654 215.778 54.311 216.026 54.7183 216.439C55.1256 216.852 55.3657 217.401 55.3925 217.981Z" fill="#D90429"/>
<path opacity="0.5" d="M89.1081 209.823L77.2748 210.063L75.3434 212.722V221.905L77.7601 223.592H89.1081L91.5199 220.934V212.236L89.1081 209.823Z" fill="#D90429"/>
<path opacity="0.2" d="M88.8629 211.27C88.8629 211.27 77.9952 212.962 77.0295 211.27L77.2697 210.063L88.858 209.823L88.8629 211.27Z" fill="white"/>
<path opacity="0.5" d="M90.0737 236.4L92.005 238.333V247.516L90.0737 249.449C90.0737 249.449 83.0737 251.867 78.4854 249.939L76.309 247.766V238.573L78.2403 236.4H90.0737Z" fill="#D90429"/>
<path opacity="0.2" d="M89.5883 238.573C89.5883 238.573 81.1373 240.506 78.2402 238.573V236.4H90.0736L89.5883 238.573Z" fill="white"/>
<path opacity="0.5" d="M85.4855 223.529V236.601C85.4552 237.118 85.2223 237.601 84.8377 237.946C84.4531 238.292 83.9478 238.471 83.4316 238.446C82.9138 238.471 82.4071 238.29 82.0222 237.943C81.6373 237.595 81.4056 237.11 81.3777 236.592V223.529C81.3947 223.252 81.4694 222.982 81.5968 222.736C81.7243 222.49 81.9018 222.274 82.1178 222.101C82.3338 221.927 82.5837 221.801 82.8513 221.73C83.1189 221.659 83.3984 221.645 83.6718 221.689C84.1477 221.718 84.5962 221.921 84.9311 222.261C85.2659 222.6 85.4634 223.052 85.4855 223.529Z" fill="#D90429"/>
<path opacity="0.5" d="M108.054 210.191L96.2208 210.436L94.2894 213.09V222.273L96.7061 223.965H108.054L110.471 221.306V212.609L108.054 210.191Z" fill="#D90429"/>
<path opacity="0.2" d="M107.814 211.643C107.814 211.643 96.9463 213.335 95.9806 211.643L96.2208 210.436L107.809 210.196L107.814 211.643Z" fill="white"/>
<path opacity="0.5" d="M109.02 236.773L110.951 238.706V247.889L109.02 249.821C109.02 249.821 102.02 252.24 97.4316 250.312L95.26 248.139V238.936L97.1914 236.763L109.02 236.773Z" fill="#D90429"/>
<path opacity="0.2" d="M108.539 238.936C108.539 238.936 100.088 240.869 97.1912 238.936V236.763H109.02L108.539 238.936Z" fill="white"/>
<path opacity="0.5" d="M104.412 223.901V236.974C104.384 237.492 104.152 237.978 103.767 238.326C103.382 238.673 102.876 238.854 102.358 238.828C101.84 238.854 101.333 238.673 100.948 238.326C100.564 237.978 100.332 237.492 100.304 236.974V223.901C100.321 223.625 100.396 223.355 100.523 223.109C100.651 222.863 100.828 222.647 101.044 222.473C101.26 222.3 101.51 222.174 101.778 222.103C102.045 222.032 102.325 222.018 102.598 222.062C103.074 222.09 103.523 222.294 103.857 222.634C104.192 222.973 104.39 223.425 104.412 223.901Z" fill="#D90429"/>
</g>
<g opacity="0.8">
<path opacity="0.8" d="M57.4412 288.971C57.4412 288.971 50.4951 286.617 47.1471 292.744C46.265 294.404 45.816 296.261 45.8417 298.141C45.8674 300.022 46.367 301.865 47.2941 303.501C49.4902 307.474 54.0147 312.63 62.5883 312.174C69.8628 311.786 72.2794 306.228 72.9363 301.063C73.1875 299.126 72.9376 297.156 72.2105 295.343C71.4834 293.53 70.3033 291.934 68.7833 290.707C67.2634 289.481 65.4543 288.666 63.5294 288.34C61.6044 288.013 59.628 288.187 57.7892 288.844L57.4412 288.971Z" fill="#D90429"/>
<path opacity="0.1" d="M48.7696 304.046C47.8425 302.41 47.3429 300.566 47.3172 298.686C47.2915 296.805 47.7405 294.949 48.6226 293.288C51.9657 287.161 58.9167 289.516 58.9167 289.516L59.2745 289.388C61.9227 288.429 64.8333 288.494 67.4363 289.57C65.9984 288.711 64.388 288.184 62.7213 288.024C61.0547 287.865 59.3734 288.078 57.7991 288.648L57.4412 288.775C57.4412 288.775 50.4951 286.421 47.1471 292.547C46.265 294.208 45.816 296.065 45.8417 297.945C45.8674 299.825 46.367 301.669 47.2941 303.305C48.7647 305.919 51.2157 309.044 55.1373 310.746C52.4443 309.135 50.2425 306.818 48.7696 304.046Z" fill="white"/>
<path opacity="0.2" d="M53.853 291.915C53.853 291.915 56.4266 293.94 62.6766 291.915H53.853Z" fill="black"/>
<path opacity="0.8" d="M53.3041 277.198C53.3041 277.198 57.7158 289.168 57.3531 292.297L60.8482 291.929C60.8482 291.929 54.9658 281.437 56.4364 277.213L53.3041 277.198Z" fill="#D90429"/>
<path opacity="0.2" d="M53.3041 277.198C53.3041 277.198 57.7158 289.168 57.3531 292.297L60.8482 291.929C60.8482 291.929 54.9658 281.437 56.4364 277.213L53.3041 277.198Z" fill="black"/>
<path opacity="0.8" d="M71.3237 278.18C71.3237 278.18 64.3727 274.623 61.2649 277.561C58.157 280.5 57.6766 288.01 57.6766 288.01C57.6766 288.01 69.01 289.575 71.3237 278.18Z" fill="#D90429"/>
<path opacity="0.1" d="M71.3237 278.18C71.3237 278.18 64.3727 274.623 61.2649 277.561C58.157 280.5 57.6766 288.01 57.6766 288.01C57.6766 288.01 69.01 289.575 71.3237 278.18Z" fill="white"/>
</g>
<path d="M86.7648 299.807C86.7648 299.807 79.8187 297.453 76.4707 303.58C75.5886 305.24 75.1396 307.097 75.1654 308.977C75.1911 310.858 75.6906 312.701 76.6178 314.337C78.8138 318.31 83.3383 323.466 91.9119 323.01C99.1864 322.622 101.603 317.064 102.26 311.899C102.511 309.962 102.261 307.992 101.534 306.179C100.807 304.366 99.6269 302.77 98.107 301.543C96.587 300.317 94.7779 299.502 92.853 299.176C90.928 298.849 88.9516 299.023 87.1129 299.68L86.7648 299.807Z" fill="#D90429"/>
<path opacity="0.1" d="M78.1079 314.886C77.1808 313.251 76.6812 311.407 76.6555 309.527C76.6298 307.646 77.0788 305.79 77.9608 304.129C81.304 298.002 88.255 300.357 88.255 300.357L88.6128 300.229C91.261 299.27 94.1716 299.335 96.7746 300.411C95.3367 299.552 93.7263 299.024 92.0596 298.865C90.3929 298.705 88.7117 298.918 87.1373 299.488L86.7795 299.616C86.7795 299.616 79.8334 297.261 76.4853 303.388C75.6033 305.049 75.1543 306.905 75.18 308.786C75.2057 310.666 75.7053 312.51 76.6324 314.146C78.103 316.76 80.554 319.885 84.4755 321.587C81.7826 319.976 79.5808 317.659 78.1079 314.886Z" fill="white"/>
<path opacity="0.2" d="M83.1913 302.751C83.1913 302.751 85.7648 304.776 92.0148 302.751H83.1913Z" fill="black"/>
<path d="M82.6375 288.025C82.6375 288.025 87.0492 299.994 86.6865 303.123L90.1816 302.755C90.1816 302.755 84.2992 292.263 85.7698 288.039L82.6375 288.025Z" fill="#D90429"/>
<path opacity="0.2" d="M82.6375 288.025C82.6375 288.025 87.0492 299.994 86.6865 303.123L90.1816 302.755C90.1816 302.755 84.2992 292.263 85.7698 288.039L82.6375 288.025Z" fill="black"/>
<path d="M100.662 289.02C100.662 289.02 93.711 285.464 90.6031 288.402C87.4953 291.341 87.0149 298.851 87.0149 298.851C87.0149 298.851 98.3482 300.411 100.662 289.02Z" fill="#D90429"/>
<path opacity="0.1" d="M100.662 289.02C100.662 289.02 93.711 285.464 90.6031 288.402C87.4953 291.341 87.0149 298.851 87.0149 298.851C87.0149 298.851 98.3482 300.411 100.662 289.02Z" fill="white"/>
<path d="M30.8826 271.395C30.8826 271.395 31.5639 270.635 30.2845 270.331V269.08H31.0541C31.0535 267.568 30.5342 266.102 29.5831 264.927C28.632 263.752 27.3067 262.939 25.8286 262.625V261.109H26.0296V259.147H21.0786V261.109H21.2208V262.644C19.7624 262.975 18.4597 263.793 17.5263 264.962C16.5929 266.131 16.0842 267.583 16.0835 269.08H16.7698V270.282C16.7698 270.282 15.1424 271.052 16.7698 272.425C18.3973 273.799 18.1424 274.824 18.1424 274.824C18.1424 274.824 17.4561 277.395 16.0884 277.738V301.652C16.0884 303.061 16.6478 304.412 17.6434 305.408C18.639 306.405 19.9893 306.964 21.3973 306.964H25.5934C26.9971 306.959 28.3416 306.398 29.3329 305.403C30.3241 304.408 30.8813 303.061 30.8826 301.657V277.738C30.8826 277.738 28.4855 275.938 28.9218 274.824C29.4908 273.635 30.1461 272.489 30.8826 271.395Z" fill="#D90429"/>
</g>
<defs>
<clipPath id="clip0">
<rect width="500" height="327.768" fill="white"/>
</clipPath>
</defs>
</svg>
