<svg width="917" height="500" viewBox="0 0 917 500" fill="none" xmlns="http://www.w3.org/2000/svg">
<g clip-path="url(#clip0)">
<path d="M916.281 468.729C916.281 441.438 902.433 419.315 885.351 419.315C874.614 419.315 865.158 428.058 859.612 441.327C857.739 440.549 855.73 440.146 853.702 440.141C848.531 440.141 843.751 442.79 839.852 447.274C834.853 430.729 824.252 419.315 811.982 419.315C800.51 419.315 790.504 429.301 785.164 444.122C782.198 441.618 778.459 440.212 774.578 440.141C761.469 440.141 750.841 457.119 750.841 478.063C750.787 485.045 752.056 491.974 754.581 498.483H910.043C913.957 490.206 916.281 479.902 916.281 468.729Z" fill="#D90429"/>
<path d="M805.393 183.384C781.035 130.692 733.367 85.741 675.781 78.4147C660.555 76.4776 644.658 77.2545 630.531 83.2553C611.987 91.1324 598.321 107.032 584.508 121.699C555.263 152.745 522.536 180.315 486.975 203.865C469.424 215.485 450.599 226.326 429.761 229.299C387.981 235.26 346.655 206.769 327.601 169.112C315.698 145.588 310.198 117.97 300.576 93.5025C289.494 93.4813 276.292 93.4854 262.088 93.5508C222.826 93.7318 190.869 94.3118 190.869 94.3118C190.869 94.3118 228.855 43.9951 261.945 62.6371C272.52 68.5945 283.596 73.9108 293.775 78.3892C287.992 67.2659 280.698 57.2576 270.664 49.2108C250.878 33.3439 224.08 28.8933 198.745 30.0749C172.142 31.3158 145.294 38.4382 123.677 53.9935C85.1667 81.7042 69.2639 130.48 55.6531 175.929L88.5522 192.422C102.664 180.222 123.299 168.154 142.32 178.869C175.41 197.511 213.422 209.888 213.422 209.888C213.422 209.888 181.724 209.602 142.462 209.783C135.868 209.813 129.488 209.855 123.423 209.903L488.683 393.014C609.157 394.711 699.995 388.196 814.472 393.014C820.442 393.265 833.871 361.969 833.916 353.733C834.231 295.684 829.751 236.077 805.393 183.384ZM688.413 199.178C649.151 199.359 617.194 199.939 617.194 199.939C617.194 199.939 655.18 149.622 688.271 168.264C721.361 186.906 759.373 199.283 759.373 199.283C759.373 199.283 727.674 198.997 688.413 199.178L688.413 199.178Z" fill="#F2F2F2"/>
<path opacity="0.3" d="M790.717 371.38C790.717 351.537 778.431 335.451 763.276 335.451C753.751 335.451 745.362 341.808 740.441 351.456C738.752 350.886 736.981 350.594 735.197 350.594C730.586 350.672 726.183 352.53 722.91 355.78C718.475 343.75 709.07 335.451 698.185 335.451C688.007 335.451 679.13 342.712 674.392 353.488C671.614 351.623 668.348 350.616 665.001 350.594C653.37 350.594 643.942 362.938 643.942 378.167C643.908 383.303 645.042 388.38 647.26 393.014H785.183C788.881 386.408 790.789 378.95 790.717 371.38Z" fill="#D90429"/>
<path d="M916.281 499.914H69.5696V498.217H915.433L916.281 499.914Z" fill="#2F2E41"/>
<path d="M846.711 394.711H0V393.014H845.863L846.711 394.711Z" fill="#2F2E41"/>
<path d="M359.411 238.519C359.411 238.519 364.744 199.413 373.631 210.078C382.519 220.743 373.631 236.741 373.631 236.741L366.521 245.629L359.411 240.296V238.519Z" fill="#FFB8B8"/>
<path d="M338.08 250.962C338.08 250.962 355.856 231.408 359.411 234.964C362.966 238.519 373.631 240.296 371.854 247.406C370.076 254.517 332.748 277.625 332.748 277.625L338.08 250.962Z" fill="#D90429"/>
<path opacity="0.1" d="M338.08 250.962C338.08 250.962 355.856 231.408 359.411 234.964C362.966 238.519 373.631 240.296 371.854 247.406C370.076 254.517 332.748 277.625 332.748 277.625L338.08 250.962Z" fill="black"/>
<path d="M236.76 249.184V263.404C236.76 263.404 234.982 295.4 245.648 293.623C256.313 291.845 250.98 265.182 250.98 265.182L249.203 249.184H236.76Z" fill="#FFB8B8"/>
<path d="M242.092 352.282C242.092 352.282 226.095 377.168 220.762 378.945C215.429 380.723 186.988 396.721 183.433 412.719L158.548 444.714L170.99 460.712C170.99 460.712 227.872 400.276 243.87 394.943C259.868 389.61 275.866 362.947 275.866 362.947L242.092 352.282Z" fill="#FFB8B8"/>
<path d="M368.299 311.398C368.299 311.398 402.072 316.731 396.739 338.061C391.407 359.392 339.858 403.831 339.858 403.831L338.08 414.496L318.527 418.051L309.639 409.163L311.417 403.831C311.417 403.831 332.748 384.278 334.525 377.168C336.303 370.057 355.856 341.617 364.743 339.839L352.301 332.729L368.299 311.398Z" fill="#FFB8B8"/>
<path d="M163.88 444.714C163.88 444.714 170.991 434.049 160.325 435.827C149.66 437.604 142.55 439.382 142.55 446.492C142.55 453.602 151.438 503.374 162.103 499.819C172.768 496.263 163.88 480.265 163.88 480.265C163.88 480.265 169.213 466.045 172.768 464.267C176.323 462.49 176.323 453.602 172.768 453.602C169.213 453.602 162.103 448.27 163.88 444.714Z" fill="#2F2E41"/>
<path d="M314.972 405.608C314.972 405.608 314.972 396.721 307.862 405.608C300.752 414.496 297.197 421.606 304.307 426.939C311.417 432.272 336.303 444.714 336.303 444.714C336.303 444.714 362.966 450.047 359.411 437.604C359.411 437.604 341.635 428.717 341.635 421.606C341.635 414.496 341.635 402.053 336.303 405.608C330.97 409.164 314.972 410.941 314.972 405.608Z" fill="#2F2E41"/>
<path d="M281.199 272.292C281.199 272.292 256.313 275.847 258.09 311.398C258.09 311.398 226.095 343.394 234.982 354.059C243.87 364.725 263.423 384.278 270.533 378.945C277.644 373.612 298.974 332.729 298.974 332.729C298.974 332.729 348.746 350.504 357.633 341.617C366.521 332.729 375.409 311.398 375.409 311.398L330.97 288.29L281.199 272.292Z" fill="#2F2E41"/>
<path d="M350.523 170.972C362.304 170.972 371.854 161.422 371.854 149.641C371.854 137.861 362.304 128.311 350.523 128.311C338.742 128.311 329.192 137.861 329.192 149.641C329.192 161.422 338.742 170.972 350.523 170.972Z" fill="#FFB8B8"/>
<path d="M334.525 151.419C334.525 151.419 322.082 170.972 318.527 172.749C314.972 174.527 343.413 192.302 343.413 192.302C343.413 192.302 343.413 169.194 352.301 163.862L334.525 151.419Z" fill="#FFB8B8"/>
<path d="M332.748 170.972C332.748 170.972 304.307 162.084 298.974 176.304C293.641 190.525 281.199 217.188 282.976 234.964C284.754 252.739 288.309 249.184 282.976 254.517C277.644 259.849 274.088 256.294 275.866 263.404C277.644 270.515 279.421 270.515 277.644 274.07C275.866 277.625 298.974 290.068 318.527 291.845L338.08 293.623C338.08 293.623 338.08 261.627 341.635 254.517C345.19 247.406 352.301 233.186 352.301 227.853V213.744C352.301 204.352 349.85 195.124 345.19 186.97C345.19 186.97 334.525 170.972 332.748 170.972Z" fill="#D90429"/>
<path d="M311.417 178.082C311.417 178.082 245.648 183.415 238.537 201.19C231.427 218.966 227.872 254.517 234.982 254.517C242.093 254.517 250.98 258.072 252.758 254.517C254.535 250.962 261.646 215.411 263.423 215.411C265.201 215.411 318.527 210.078 318.527 210.078C318.527 210.078 341.635 181.637 311.417 178.082Z" fill="#D90429"/>
<path d="M351.38 144.353C351.38 144.353 357.041 134.516 364.116 143.06C371.192 151.605 382.702 135.903 380.935 132.553C379.168 129.202 372.928 132.703 362.235 129.207C351.541 125.712 330.941 118.59 327.491 141.821C324.042 165.052 332.258 162.616 332.258 162.616C332.258 162.616 336.024 142.031 339.428 147.944L342.832 153.857L345.785 154.584L351.38 144.353Z" fill="#2F2E41"/>
<path d="M552.576 89.9211C566.949 89.9211 578.6 78.2696 578.6 63.8968C578.6 49.5239 566.949 37.8724 552.576 37.8724C538.203 37.8724 526.551 49.5239 526.551 63.8968C526.551 78.2696 538.203 89.9211 552.576 89.9211Z" fill="#2F2E41"/>
<path d="M544.257 83.1594C544.257 83.1594 545.604 107.4 542.91 107.4C540.217 107.4 559.744 118.847 559.744 118.847L571.865 112.114V104.033C571.865 104.033 555.704 102.013 562.438 84.5061C569.171 66.9989 544.257 83.1594 544.257 83.1594Z" fill="#9F616A"/>
<path d="M487.695 349.134L485.675 369.335L492.408 371.355L497.795 365.969L499.815 349.134H487.695Z" fill="#9F616A"/>
<path d="M584.658 360.582L588.025 373.375L597.452 379.435L607.553 374.049L596.105 355.195L584.658 360.582Z" fill="#9F616A"/>
<path d="M550.654 93.5963C561.438 93.5963 570.181 84.8537 570.181 74.0691C570.181 63.2844 561.438 54.5417 550.654 54.5417C539.869 54.5417 531.126 63.2844 531.126 74.0691C531.126 84.8537 539.869 93.5963 550.654 93.5963Z" fill="#9F616A"/>
<path d="M538.87 147.128L534.157 145.108C534.157 145.108 526.077 140.395 525.403 130.968C524.73 121.541 532.137 109.42 532.137 109.42L542.91 106.053L555.569 116.356L555.704 132.988L538.87 147.128Z" fill="#9F616A"/>
<path d="M534.157 110.767L531.463 109.42C531.463 109.42 517.996 108.747 516.649 124.907C515.303 141.068 510.589 168.002 510.589 168.002C510.589 168.002 499.815 186.856 500.489 207.057L495.102 224.564C495.102 224.564 487.695 250.151 496.449 250.151C505.202 250.151 504.529 222.544 504.529 222.544C504.529 222.544 520.689 183.489 522.036 176.756C523.383 170.022 534.83 138.374 531.463 129.621C528.096 120.867 534.157 110.767 534.157 110.767Z" fill="#9F616A"/>
<path d="M544.257 153.188V160.595C544.257 160.595 548.97 165.982 546.95 169.349C544.93 172.716 542.91 179.449 542.91 179.449L552.337 194.263L583.985 196.956L590.278 154.791L544.257 153.188Z" fill="#9F616A"/>
<path d="M573.885 106.053L579.271 103.36C579.271 103.36 590.718 95.2798 600.145 93.9331L629.1 74.4057L647.954 29.2909C647.954 29.2909 647.28 5.05016 652.667 7.74358C658.054 10.437 657.381 31.311 657.381 31.311C657.381 31.311 647.28 73.059 638.527 84.5061C629.773 95.9531 598.125 114.807 598.125 114.807C598.125 114.807 589.372 124.907 590.045 129.621C590.718 134.334 573.885 106.053 573.885 106.053Z" fill="#9F616A"/>
<path d="M548.97 179.449C548.97 179.449 541.564 174.736 536.85 182.816C532.137 190.896 523.383 192.916 517.996 217.157C512.609 241.398 499.816 279.779 496.449 282.473C493.082 285.166 478.942 313.447 487.022 353.175H500.489L511.936 295.94C511.936 295.94 548.97 250.151 551.664 231.297L563.784 302C563.784 302 564.458 328.934 574.558 341.728L585.332 367.315L599.472 360.582L583.312 295.94C583.312 295.94 591.392 230.624 586.005 212.444L585.231 188.608C585.231 188.608 563.111 189.549 548.97 179.449Z" fill="#2F2E41"/>
<path d="M492.409 365.969H484.328C482.982 365.969 472.208 374.722 476.922 379.436C481.635 384.149 489.042 392.903 489.042 392.903C489.042 392.903 515.303 396.243 515.976 391.529C516.649 386.816 504.529 376.742 504.529 376.742L501.162 365.969C501.162 365.969 494.429 358.562 492.409 365.969Z" fill="#2F2E41"/>
<path d="M599.472 372.702C599.472 372.702 588.025 372.029 586.005 371.355C583.985 370.682 579.945 388.863 586.005 390.209C592.065 391.556 616.979 393.576 616.979 393.576C616.979 393.576 636.507 392.903 635.16 387.516C633.813 382.129 607.552 371.355 607.552 371.355C607.552 371.355 604.185 364.622 599.472 372.702Z" fill="#2F2E41"/>
<path d="M546.277 105.38L542.91 103.36L538.87 106.727C538.87 106.727 550.991 114.807 548.297 122.214C545.604 129.621 534.157 145.108 534.157 145.108C534.157 145.108 544.257 156.555 544.257 160.595C544.257 160.595 570.518 151.168 590.045 160.595C590.045 160.595 590.045 147.128 592.739 144.435C595.432 141.741 596.779 132.314 590.045 124.234C585.301 118.288 581.024 111.985 577.252 105.38L570.518 101.34L567.05 102.44C567.05 102.44 573.885 110.094 567.151 110.767C560.418 111.44 549.644 109.42 546.277 105.38Z" fill="#D90429"/>
<path d="M571.596 19.5273C569.308 22.0809 566.175 23.7222 562.773 24.1491C556.89 24.9894 561.512 34.233 561.512 34.233C561.512 34.233 559.831 30.8717 563.193 27.9306C566.554 24.9894 571.596 23.3088 571.596 19.5273Z" fill="#2F2E41"/>
<path d="M560.255 43.4185C564.261 43.4185 567.508 40.1714 567.508 36.1658C567.508 32.1603 564.261 28.9131 560.255 28.9131C556.25 28.9131 553.002 32.1603 553.002 36.1658C553.002 40.1714 556.25 43.4185 560.255 43.4185Z" fill="#2F2E41"/>
<path d="M568.722 43.3074C563.119 40.3808 553.48 38.0789 548.359 38.2435L549.654 33.2906C554.188 36.3708 563.776 38.7156 570.018 38.3545L568.722 43.3074Z" fill="#D90429"/>
<path d="M557.147 43.7433C557.147 43.7433 548.317 55.0952 530.659 57.6179C513 60.1405 526.875 87.8897 526.875 87.8897C526.875 87.8897 521.83 77.7991 531.92 68.9698C542.011 60.1405 557.147 55.0952 557.147 43.7433Z" fill="#2F2E41"/>
<path d="M557.82 43.0699C557.82 43.0699 562.865 60.7285 570.433 63.2512C578.001 65.7738 574.217 92.2616 561.604 94.7843C561.604 94.7843 572.325 80.279 566.019 68.9271C559.712 57.5752 555.928 48.7459 557.82 43.0699Z" fill="#2F2E41"/>
<path d="M676.571 13.4671H630.11V18.8539H676.571V13.4671Z" fill="#2F2E41"/>
<path d="M676.571 32.321C678.803 32.321 680.611 25.0857 680.611 16.1605C680.611 7.23531 678.803 0 676.571 0C674.34 0 672.531 7.23531 672.531 16.1605C672.531 25.0857 674.34 32.321 676.571 32.321Z" fill="#2F2E41"/>
<path d="M630.11 32.321C632.341 32.321 634.15 25.0857 634.15 16.1605C634.15 7.23531 632.341 0 630.11 0C627.878 0 626.07 7.23531 626.07 16.1605C626.07 25.0857 627.878 32.321 630.11 32.321Z" fill="#2F2E41"/>
<path d="M700.139 375.745H653.677V381.132H700.139V375.745Z" fill="#2F2E41"/>
<path d="M700.139 394.599C702.37 394.599 704.179 387.364 704.179 378.439C704.179 369.513 702.37 362.278 700.139 362.278C697.907 362.278 696.099 369.513 696.099 378.439C696.099 387.364 697.907 394.599 700.139 394.599Z" fill="#2F2E41"/>
<path d="M653.677 394.599C655.909 394.599 657.717 387.364 657.717 378.439C657.717 369.513 655.909 362.278 653.677 362.278C651.446 362.278 649.637 369.513 649.637 378.439C649.637 387.364 651.446 394.599 653.677 394.599Z" fill="#2F2E41"/>
<path opacity="0.3" d="M164.591 371.38C164.591 351.537 152.306 335.451 137.151 335.451C127.626 335.451 119.236 341.808 114.316 351.456C112.627 350.886 110.855 350.594 109.072 350.594C104.461 350.672 100.058 352.53 96.7851 355.78C92.3499 343.75 82.9451 335.451 72.0595 335.451C61.8815 335.451 53.0044 342.712 48.2672 353.488C45.4884 351.623 42.2223 350.616 38.8756 350.594C27.2451 350.594 17.8167 362.938 17.8167 378.167C17.7826 383.303 18.9172 388.38 21.1345 393.014H159.057C162.756 386.408 164.663 378.95 164.591 371.38Z" fill="#D90429"/>
</g>
<defs>
<clipPath id="clip0">
<rect width="916.281" height="500" fill="white"/>
</clipPath>
</defs>
</svg>
